<?xml version="1.0" encoding="UTF-8"?>
<svg width="43px" height="14px" viewBox="0 0 43 14" version="1.1" xmlns="http://www.w3.org/2000/svg" xmlns:xlink="http://www.w3.org/1999/xlink">
    <!-- Generator: Sketch 59.1 (86144) - https://sketch.com -->
    <title>GRIT</title>
    <desc>Created with Sketch.</desc>
    <g id="Screenshots" stroke="none" stroke-width="1" fill="none" fill-rule="evenodd">
        <path d="M12.942,6.16 L7.542,6.16 L7.542,8.338 L10.548,8.338 C10.206,10.084 9,10.714 7.38,10.714 C5.13,10.714 3.546,9.04 3.546,6.7 C3.546,4.36 5.22,2.686 7.506,2.686 C8.424,2.686 9.324,3.028 9.99,3.496 L11.574,1.714 C10.494,0.76 9.018,0.22 7.344,0.22 C3.834,0.22 0.81,2.866 0.81,6.7 C0.81,10.534 3.762,13.18 7.344,13.18 C10.746,13.18 13.536,10.534 12.942,6.16 Z M25.804,13 L22.726,8.32 C24.13,7.672 24.958,6.394 24.958,4.684 C24.958,2.11 23.122,0.4 20.296,0.4 L15.886,0.4 L15.886,13 L18.514,13 L18.514,8.806 L20.332,8.806 L23.014,13 L25.804,13 Z M18.514,2.812 L20.134,2.812 C21.43,2.812 22.33,3.352 22.33,4.684 C22.33,6.034 21.43,6.538 20.134,6.538 L18.514,6.538 L18.514,2.812 Z M30.872,0.4 L28.244,0.4 L28.244,13 L30.872,13 L30.872,0.4 Z M42.582,0.4 L42.582,2.812 L39.45,2.812 L39.45,13 L36.822,13 L36.822,2.812 L33.672,2.812 L33.672,0.4 L42.582,0.4 Z" id="GRIT" fill="#000000" fill-rule="nonzero"></path>
    </g>
</svg>